<svg width="820" height="220" viewBox="0 0 820 220" fill="none" xmlns="http://www.w3.org/2000/svg">
  <defs>
    <linearGradient id="shield" x1="34" y1="20" x2="150" y2="176" gradientUnits="userSpaceOnUse">
      <stop stop-color="#0F1B30"/>
      <stop offset="1" stop-color="#08111D"/>
    </linearGradient>
    <linearGradient id="edge" x1="46" y1="26" x2="138" y2="170" gradientUnits="userSpaceOnUse">
      <stop stop-color="#67E8F9"/>
      <stop offset="1" stop-color="#2563EB"/>
    </linearGradient>
    <linearGradient id="crown" x1="92" y1="18" x2="92" y2="44" gradientUnits="userSpaceOnUse">
      <stop stop-color="#FDE68A"/>
      <stop offset="1" stop-color="#F59E0B"/>
    </linearGradient>
    <linearGradient id="masters" x1="286" y1="86" x2="615" y2="154" gradientUnits="userSpaceOnUse">
      <stop stop-color="#38E8FF"/>
      <stop offset="1" stop-color="#1D8FFF"/>
    </linearGradient>
    <linearGradient id="silver" x1="285" y1="26" x2="620" y2="84" gradientUnits="userSpaceOnUse">
      <stop stop-color="#F8FAFC"/>
      <stop offset="1" stop-color="#CBD5E1"/>
    </linearGradient>
  </defs>

  <path d="M92 20L138 36V88C138 115 121 138 92 153C63 138 46 115 46 88V36L92 20Z"
        fill="url(#shield)" stroke="url(#edge)" stroke-width="4"/>
  <path d="M66 38L75 27L92 36L109 27L118 38" stroke="url(#crown)" stroke-width="6" stroke-linecap="round" stroke-linejoin="round"/>
  <circle cx="92" cy="28" r="4" fill="#FBBF24"/>
  <path d="M62 104V50H74V93H90V104H62Z" fill="#F8FAFC"/>
  <path d="M94 104V50H107L120 73L133 50H145V104H133V72L121 92H115L103 72V104H94Z" fill="#F8FAFC"/>
  <path d="M64 116H120" stroke="rgba(103,232,249,0.35)" stroke-width="2" stroke-linecap="round"/>
  <text x="92" y="132" text-anchor="middle" fill="#38E8FF" font-family="Inter, Arial, sans-serif" font-size="16" font-weight="800" letter-spacing="3">1X2</text>

  <text x="260" y="78" fill="url(#silver)" font-family="Inter, Arial, sans-serif" font-size="58" font-weight="900" letter-spacing="3">LIGA DE</text>
  <text x="260" y="142" fill="url(#masters)" font-family="Inter, Arial, sans-serif" font-size="72" font-weight="900" letter-spacing="2">MAESTROS</text>

  <line x1="260" y1="170" x2="330" y2="170" stroke="rgba(255,255,255,0.28)" stroke-width="2"/>
  <line x1="616" y1="170" x2="768" y2="170" stroke="rgba(255,255,255,0.28)" stroke-width="2"/>
  <text x="348" y="177" fill="#F8FAFC" font-family="Inter, Arial, sans-serif" font-size="22" font-weight="800" letter-spacing="1.5">1X2</text>
  <circle cx="406" cy="168" r="3" fill="#38E8FF"/>
  <text x="422" y="177" fill="#F8FAFC" font-family="Inter, Arial, sans-serif" font-size="22" font-weight="700">La Peña vs IA</text>
</svg>
